HIERARCHY
ROOT simHips
{
  OFFSET 6.13146 95.3961 -0.669452
  CHANNELS 6 Xposition Yposition Zposition Zrotation Xrotation Yrotation
  JOINT simSpine
  {
    OFFSET -0.000360269 21.3001 -0.0169217
    CHANNELS 3 Zrotation Xrotation Yrotation
    JOINT simLeftArm
    {
      OFFSET 13.5181 21.3012 -2.3511e-005
      CHANNELS 3 Zrotation Xrotation Yrotation
      JOINT simLeftForeArm
      {
        OFFSET 24.5783 0 -6.3921e-005
        CHANNELS 3 Zrotation Xrotation Yrotation
        JOINT simLeftHand
        {
          OFFSET 24.5783 0 0
          CHANNELS 3 Zrotation Xrotation Yrotation
          End Site
          {
            OFFSET 7.32568 1.52588e-005 0.0169305
          }
        }
      }
    }
    JOINT simHead
    {
      OFFSET 0 27.4458 -0.00488811
      CHANNELS 3 Zrotation Xrotation Yrotation
      End Site
      {
        OFFSET 0 0 0
      }
    }
    JOINT simRightArm
    {
      OFFSET -13.5174 21.3012 -1.52733e-005
      CHANNELS 3 Zrotation Xrotation Yrotation
      JOINT simRightForeArm
      {
        OFFSET -24.5783 -0.000552281 0.000112897
        CHANNELS 3 Zrotation Xrotation Yrotation
        JOINT simRightHand
        {
          OFFSET -24.5783 0 1.19926e-005
          CHANNELS 3 Zrotation Xrotation Yrotation
          End Site
          {
            OFFSET -7.32568 1.52588e-005 0.0169305
          }
        }
      }
    }
  }
  JOINT simRightUpLeg
  {
    OFFSET -8.44614 -9.41038 0.835682
    CHANNELS 3 Zrotation Xrotation Yrotation
    JOINT simRightLeg
    {
      OFFSET -3.23466e-005 -40.9639 0
      CHANNELS 3 Zrotation Xrotation Yrotation
      JOINT simRightFoot
      {
        OFFSET 0 -40.9639 0
        CHANNELS 3 Zrotation Xrotation Yrotation
        End Site
        {
          OFFSET 0.50614 -9.67405 14.6709
        }
      }
    }
  }
  JOINT simLeftUpLeg
  {
    OFFSET 8.44614 -9.41038 0.835681
    CHANNELS 3 Zrotation Xrotation Yrotation
    JOINT simLeftLeg
    {
      OFFSET -0.00018133 -40.964 6.2497e-005
      CHANNELS 3 Zrotation Xrotation Yrotation
      JOINT simLeftFoot
      {
        OFFSET 0 -40.9639 0
        CHANNELS 3 Zrotation Xrotation Yrotation
        End Site
        {
          OFFSET -0.50614 -9.67405 14.6709
        }
      }
    }
  }
}
MOTION
Frames:	9
Frame Time:	0.0333333
-1.00915 97.152 -155.808 6.75882 17.205 -35.0259 -4.85692 12.4613 13.4727 -52.0605 -14.0416 -2.90369 -0.0116006 -6.86781e-005 -76.4556 -30.0769 -48.0678 -45.3118 4.0146 -25.9665 6.06796 59.5654 3.26474 57.5613 0.0147986 2.93938e-006 78.8934 163.29 -11.3024 -165.768 -20.184 -7.13735 -34.7811 0.00140446 26.1121 0.020848 23.7157 -13.5417 3.101 38.0958 -48.1072 27.2026 -0.00197261 44.5115 -0.0274244 -15.3934 -2.26088 -6.27446 
-1.55624 97.3018 -156.112 6.14201 14.8534 -34.8097 -4.58255 12.1128 13.0577 -51.8463 -14.4444 -1.59582 -0.0110627 -6.20908e-005 -77.7759 -30.5777 -48.2664 -44.9868 4.66798 -26.2155 6.41311 59.2459 3.47082 56.9994 0.0166633 2.39357e-006 80.975 163.254 -11.3101 -165.538 -20.4261 -4.43266 -34.4968 -2.44163e-005 25.4097 0.027963 23.8199 -13.7969 3.4358 35.5689 -45.2687 24.8336 -0.000702941 43.0608 -0.0384568 -15.8646 -2.06208 -6.26923 
-2.13436 97.4291 -156.449 5.51747 12.4719 -34.6893 -4.20852 11.641 12.629 -51.808 -14.6413 -0.265057 -0.0104775 -5.62747e-005 -78.9362 -30.9882 -48.1332 -44.9919 5.5029 -26.7349 6.87737 58.884 3.66838 56.3816 0.0185027 1.93634e-006 82.7095 162.803 -10.7645 -165.487 -20.6439 -1.70038 -34.3172 -2.99436e-005 24.7219 0.0363103 23.9506 -14.1512 3.79296 33.3857 -42.2563 22.7194 -8.88666e-005 41.5201 -0.0504138 -16.433 -1.85258 -6.22514 
-2.68478 97.5402 -156.786 4.92216 10.1269 -34.6767 -3.80516 11.0536 12.2463 -51.9616 -14.7152 1.1507 -0.00984572 -4.93315e-005 -80.3153 -30.8163 -48.1636 -44.1901 6.12721 -26.7916 7.22631 58.4343 3.85596 55.7166 0.0202893 1.53184e-006 84.2383 162.217 -9.90075 -165.253 -20.8534 1.01613 -33.9985 -0.000163329 23.9123 0.0448091 24.1047 -14.5514 4.24961 31.4946 -39.1586 20.8522 -3.25394e-005 39.8829 -0.0620325 -17.0471 -1.6238 -6.10242 
-3.21908 97.6372 -157.128 4.39341 7.85448 -34.7759 -3.35135 10.3799 11.9161 -52.2376 -14.7017 2.5479 -0.00916767 -4.30554e-005 -81.5571 -30.8414 -47.8103 -43.1582 6.44737 -26.2452 7.56276 57.8898 4.06718 55.0353 0.0219958 1.21732e-006 85.4242 162.181 -9.45235 -164.095 -21.0931 3.68564 -33.609 1.11894e-005 22.9286 0.0528381 24.2802 -14.9127 4.77874 29.8467 -36.0578 19.2478 -6.28095e-005 38.2079 -0.0729295 -17.6738 -1.4019 -5.90886 
-3.73096 97.7153 -157.47 3.90198 5.6921 -34.9971 -2.8198 9.57713 11.5887 -52.6333 -14.6204 3.937 -0.00844389 -3.75212e-005 -82.6488 -30.9346 -47.7507 -42.3295 6.34139 -24.7507 7.65073 57.3255 4.29973 54.334 0.0235949 1.0011e-006 86.2382 162.693 -9.55566 -163.469 -21.3575 6.22414 -33.1501 4.56948e-005 21.887 0.0601639 24.4747 -15.244 5.33911 28.4561 -33.005 17.9041 -3.16749e-005 36.5325 -0.0828963 -18.2996 -1.18138 -5.6391 
-4.21585 97.7634 -157.825 3.3811 3.73246 -35.2579 -2.08287 8.69594 11.2336 -53.1407 -14.4418 5.38532 -0.00767498 -3.24536e-005 -83.646 -31.0054 -47.8588 -41.8876 6.07749 -22.8535 7.84807 56.5947 4.55732 53.7526 0.0250591 7.96775e-007 87.0068 163.111 -9.6863 -162.126 -21.5479 8.56779 -32.6815 3.60649e-005 20.8556 0.0666671 24.6724 -15.5546 5.89882 27.3964 -30.1695 16.7808 0.00129786 34.9557 -0.0916361 -18.9175 -0.945423 -5.31444 
-4.65374 97.792 -158.189 2.83946 2.00057 -35.551 -1.1642 7.87814 10.8812 -53.6761 -14.3114 6.76615 -0.00686157 -2.72894e-005 -84.6603 -31.1083 -48.1951 -41.6838 5.79483 -21.2918 8.13501 55.9268 4.79512 53.1076 0.0263612 4.936e-007 88.1462 163.523 -9.91238 -160.079 -21.6715 10.6668 -32.2024 0.000420528 19.897 0.0720486 24.8721 -15.8492 6.43432 26.6089 -27.5523 15.8477 0.00240609 33.4332 -0.0993233 -19.5076 -0.70253 -4.96278 
-5.01646 97.8149 -158.547 2.37274 0.492797 -35.8389 -0.265272 7.04409 10.4266 -54.2887 -14.2773 7.98478 -0.00600406 -2.35171e-005 -85.4002 -30.7424 -48.1022 -40.9088 5.12705 -19.7185 8.1293 55.5063 4.97973 52.3933 0.0274738 1.41409e-007 89.469 164.069 -10.4466 -158.842 -21.821 12.4539 -31.7365 0.00104104 19.0761 0.0763206 25.0518 -16.1252 6.90765 25.9381 -25.1985 15.0504 0.00298835 31.9249 -0.105548 -20.04 -0.448455 -4.57334 
